<svg width="17" height="16" viewBox="0 0 17 16" fill="none" xmlns="http://www.w3.org/2000/svg">
<g clip-path="url(#clip0_6_573)">
<path d="M0.953125 8C0.953125 5.87827 1.79598 3.84344 3.29627 2.34315C4.79656 0.842855 6.83139 0 8.95312 0C11.0749 0 13.1097 0.842855 14.61 2.34315C16.1103 3.84344 16.9531 5.87827 16.9531 8C16.9531 10.1217 16.1103 12.1566 14.61 13.6569C13.1097 15.1571 11.0749 16 8.95312 16C6.83139 16 4.79656 15.1571 3.29627 13.6569C1.79598 12.1566 0.953125 10.1217 0.953125 8ZM6.8375 4.59688C6.6 4.72813 6.45312 4.98125 6.45312 5.25V10.75C6.45312 11.0219 6.6 11.2719 6.8375 11.4031C7.075 11.5344 7.3625 11.5312 7.59688 11.3875L12.0969 8.6375C12.3188 8.5 12.4563 8.25937 12.4563 7.99687C12.4563 7.73438 12.3188 7.49375 12.0969 7.35625L7.59688 4.60625C7.36563 4.46562 7.075 4.45937 6.8375 4.59062V4.59688Z" fill="white"/>
</g>
<defs>
<clipPath id="clip0_6_573">
<path d="M0.953125 0H16.9531V16H0.953125V0Z" fill="white"/>
</clipPath>
</defs>
</svg>
