<svg width="17" height="16" viewBox="0 0 17 16" fill="none" xmlns="http://www.w3.org/2000/svg">
<g clip-path="url(#clip0_6_550)">
<g clip-path="url(#clip1_6_550)">
<path d="M5.05003 12.0281L4.08441 11.0625C3.81878 10.7969 3.72503 10.4125 3.84378 10.0562C3.93753 9.77812 4.06253 9.41562 4.21253 9H0.90628C0.63753 9 0.38753 8.85625 0.253155 8.62187C0.11878 8.3875 0.121905 8.1 0.259405 7.86875L1.90003 5.10312C2.30628 4.41875 3.04066 4 3.83441 4H6.40628C6.48128 3.875 6.55628 3.75937 6.63128 3.64687C9.19066 -0.128126 13.0032 -0.253125 15.2782 0.165625C15.6407 0.23125 15.9219 0.515625 15.9907 0.878125C16.4094 3.15625 16.2813 6.96562 12.5094 9.525C12.4 9.6 12.2813 9.675 12.1563 9.75V12.3219C12.1563 13.1156 11.7375 13.8531 11.0532 14.2563L8.28753 15.8969C8.05628 16.0344 7.76878 16.0375 7.53441 15.9031C7.30003 15.7688 7.15628 15.5219 7.15628 15.25V11.9C6.71566 12.0531 6.33128 12.1781 6.04066 12.2719C5.69066 12.3844 5.30941 12.2875 5.04691 12.0281H5.05003ZM12.1563 5.25C12.4878 5.25 12.8057 5.1183 13.0402 4.88388C13.2746 4.64946 13.4063 4.33152 13.4063 4C13.4063 3.66848 13.2746 3.35054 13.0402 3.11612C12.8057 2.8817 12.4878 2.75 12.1563 2.75C11.8248 2.75 11.5068 2.8817 11.2724 3.11612C11.038 3.35054 10.9063 3.66848 10.9063 4C10.9063 4.33152 11.038 4.64946 11.2724 4.88388C11.5068 5.1183 11.8248 5.25 12.1563 5.25Z" fill="white"/>
</g>
</g>
<defs>
<clipPath id="clip0_6_550">
<rect width="16" height="16" fill="white" transform="translate(0.15625)"/>
</clipPath>
<clipPath id="clip1_6_550">
<path d="M0.15625 0H16.1562V16H0.15625V0Z" fill="white"/>
</clipPath>
</defs>
</svg>
