<svg width="15" height="16" viewBox="0 0 15 16" fill="none" xmlns="http://www.w3.org/2000/svg">
<g clip-path="url(#clip0_6_699)">
<path d="M11.1406 7C12.7969 7 14.1406 5.65625 14.1406 4C14.1406 2.34375 12.7969 1 11.1406 1C9.48438 1 8.14062 2.34375 8.14062 4C8.14062 4.125 8.14688 4.25 8.1625 4.37187L5.22188 5.84062C4.68438 5.31875 3.95 5 3.14062 5C1.48438 5 0.140625 6.34375 0.140625 8C0.140625 9.65625 1.48438 11 3.14062 11C3.95 11 4.68438 10.6813 5.22188 10.1594L8.1625 11.6281C8.14688 11.75 8.14062 11.8719 8.14062 12C8.14062 13.6562 9.48438 15 11.1406 15C12.7969 15 14.1406 13.6562 14.1406 12C14.1406 10.3438 12.7969 9 11.1406 9C10.3313 9 9.59688 9.31875 9.05937 9.84062L6.11875 8.37187C6.13438 8.25 6.14062 8.12813 6.14062 8C6.14062 7.87187 6.13438 7.75 6.11875 7.62813L9.05937 6.15938C9.59688 6.68125 10.3313 7 11.1406 7Z" fill="white"/>
</g>
<defs>
<clipPath id="clip0_6_699">
<path d="M0.140625 0H14.1406V16H0.140625V0Z" fill="white"/>
</clipPath>
</defs>
</svg>
