<svg width="17" height="16" viewBox="0 0 17 16" fill="none" xmlns="http://www.w3.org/2000/svg">
<g clip-path="url(#clip0_6_534)">
<g clip-path="url(#clip1_6_534)">
<path d="M2.09375 1C0.990625 1 0.09375 1.89688 0.09375 3V13C0.09375 14.1031 0.990625 15 2.09375 15H14.0938C15.1969 15 16.0938 14.1031 16.0938 13V6C16.0938 4.89687 15.1969 4 14.0938 4H2.59375C2.31875 4 2.09375 3.775 2.09375 3.5C2.09375 3.225 2.31875 3 2.59375 3H14.0938C14.6469 3 15.0938 2.55313 15.0938 2C15.0938 1.44687 14.6469 1 14.0938 1H2.09375ZM13.0938 8.5C13.359 8.5 13.6133 8.60536 13.8009 8.79289C13.9884 8.98043 14.0938 9.23478 14.0938 9.5C14.0938 9.76522 13.9884 10.0196 13.8009 10.2071C13.6133 10.3946 13.359 10.5 13.0938 10.5C12.8285 10.5 12.5742 10.3946 12.3866 10.2071C12.1991 10.0196 12.0938 9.76522 12.0938 9.5C12.0938 9.23478 12.1991 8.98043 12.3866 8.79289C12.5742 8.60536 12.8285 8.5 13.0938 8.5Z" fill="white"/>
</g>
</g>
<defs>
<clipPath id="clip0_6_534">
<rect width="16" height="16" fill="white" transform="translate(0.09375)"/>
</clipPath>
<clipPath id="clip1_6_534">
<path d="M0.09375 0H16.0938V16H0.09375V0Z" fill="white"/>
</clipPath>
</defs>
</svg>
